<svg version="1.1" id="Layer_1" xmlns="http://www.w3.org/2000/svg" xmlns:xlink="http://www.w3.org/1999/xlink" x="0px" y="0px" width="100%" viewBox="0 0 1024 1024" enable-background="new 0 0 1024 1024" xml:space="preserve">
<path fill="#000000" opacity="1.000000" stroke="none" d="
M315.807251,591.695801 
	C313.012238,600.208618 313.012238,600.208252 304.672272,600.194885 
	C297.672668,600.183716 290.672791,600.206116 283.673706,600.140442 
	C281.906097,600.123840 279.971344,600.578308 277.942413,598.438171 
	C286.403534,575.282776 294.981567,551.807373 303.582153,528.270264 
	C300.311127,526.881104 297.622833,527.406738 295.017029,527.388550 
	C284.351471,527.314087 273.683777,527.450439 263.019836,527.299316 
	C259.749329,527.252991 257.359711,528.194275 255.217346,530.728394 
	C247.796143,539.506409 240.070633,548.029236 232.736588,556.877625 
	C229.723282,560.513062 226.506805,562.369446 221.640076,562.088440 
	C215.082077,561.709961 208.485794,561.994507 201.905930,561.994507 
	C201.719910,561.488892 201.533890,560.983215 201.347870,560.477600 
	C210.827530,549.733765 220.307190,538.989929 229.974289,528.033630 
	C226.518585,526.565857 224.329666,527.548950 222.237167,529.943054 
	C214.015030,539.350220 205.622787,548.608948 197.413788,558.027405 
	C195.403976,560.333252 193.287460,561.549500 190.129562,561.484558 
	C185.307129,561.385315 180.476242,561.747253 175.647827,561.869019 
	C173.013062,561.935486 170.380905,561.880737 167.036057,560.597900 
	C176.997864,549.628845 186.559265,539.100708 196.455872,528.203491 
	C192.748734,526.570923 190.228607,527.049377 187.785660,529.798462 
	C179.596176,539.014221 171.144257,547.998657 163.042419,557.289307 
	C160.379822,560.342590 157.553986,561.615723 153.540298,561.493835 
	C148.223663,561.332520 142.889954,561.796387 137.561874,561.916382 
	C135.608368,561.960449 133.563889,562.205872 131.344650,560.531677 
	C140.576584,549.076416 151.565704,539.428284 161.474335,527.903076 
	C155.080566,526.863220 151.582565,523.744629 151.622513,517.556091 
	C151.664200,511.097198 154.956619,507.714783 161.461975,507.718597 
	C195.293259,507.738434 229.124512,507.831665 262.955780,507.834045 
	C449.445160,507.847260 635.934509,507.843079 822.423889,507.821838 
	C824.549622,507.821594 826.746338,508.200684 829.386902,506.966614 
	C825.375427,497.021820 818.945801,488.298370 814.581360,478.591797 
	C814.877380,478.150177 815.173401,477.708588 815.469421,477.266968 
	C851.437988,490.767700 887.406616,504.268433 923.375183,517.769165 
	C923.428162,518.307251 923.481140,518.845337 923.534119,519.383362 
	C887.889893,533.110718 852.245667,546.838074 816.601440,560.565430 
	C816.149719,560.166992 815.697998,559.768555 815.246277,559.370117 
	C820.353027,549.121033 825.459717,538.872009 830.926270,527.900757 
	C786.529541,527.900757 742.868103,527.900757 699.199829,527.900757 
	C699.928955,547.421326 716.711914,566.058899 736.268250,568.609131 
	C754.243408,570.953186 769.515015,565.521912 781.064697,551.108276 
	C782.969727,548.730835 784.625916,548.101501 787.320251,549.990662 
	C793.457275,554.293823 799.672424,558.500793 806.030029,562.467834 
	C809.244751,564.473694 809.431763,566.286438 807.286743,569.259766 
	C793.847351,587.889038 775.134949,597.739807 752.858459,600.046082 
	C729.041565,602.511841 707.236267,596.508484 688.952942,580.188904 
	C675.820923,568.467407 669.082092,553.343933 665.723022,536.431641 
	C665.625977,535.943237 665.640930,535.433350 665.555603,534.941833 
	C664.236145,527.341431 664.234253,527.325745 656.590149,527.334045 
	C652.760193,527.338257 648.929871,527.392395 645.101135,527.484131 
	C644.670837,527.494446 644.249817,527.896851 643.061707,528.512878 
	C651.525757,551.968628 660.001282,575.455811 668.911987,600.149231 
	C661.476501,600.149231 655.216003,600.152344 648.955444,600.148621 
	C633.522522,600.139404 633.496460,600.147461 628.381470,585.754272 
	C626.095337,579.321167 623.865234,572.865845 621.754578,566.373596 
	C620.798218,563.431763 619.156067,562.137268 615.937927,562.154419 
	C597.106262,562.254333 578.273376,562.247803 559.441833,562.127441 
	C556.328003,562.107544 555.031860,563.534119 554.119141,566.213379 
	C550.844849,575.825867 547.300110,585.347778 544.130310,594.993530 
	C542.911438,598.702515 541.064331,600.381653 536.970459,600.231079 
	C528.814453,599.931091 520.640747,600.149902 512.475281,600.061646 
	C507.361115,600.006409 506.836151,599.312927 508.609314,594.457825 
	C515.635071,575.220520 522.754272,556.017334 529.829712,536.798157 
	C530.847595,534.033325 532.188354,531.350830 532.381165,528.527100 
	C530.966309,526.934692 529.364441,527.400635 527.937073,527.393799 
	C517.937866,527.345520 507.933319,527.549072 497.941193,527.277222 
	C493.576508,527.158325 492.179840,528.531311 492.224731,532.955627 
	C492.431091,553.285706 492.170837,573.620850 492.421295,593.949951 
	C492.482025,598.879578 490.789459,600.333801 486.100220,600.134460 
	C478.946594,599.830322 471.770996,600.057983 464.604858,600.030334 
	C458.006775,600.004883 457.782166,599.790283 457.777222,593.365845 
	C457.762085,573.700317 457.767456,554.034729 457.761292,534.369202 
	C457.759094,527.381226 457.754456,527.363586 450.544281,527.347717 
	C440.044952,527.324585 429.545471,527.311890 419.046234,527.341980 
	C417.426208,527.346619 415.713531,526.957275 413.554993,528.440430 
	C422.122345,551.745972 430.749817,575.215027 439.475922,598.952515 
	C435.725525,600.666992 432.364014,599.976501 429.130402,600.031189 
	C422.466064,600.143921 415.794495,599.928711 409.133759,600.120361 
	C405.594635,600.222168 403.618011,598.898987 402.463013,595.537903 
	C399.216766,586.091003 395.617493,576.763977 392.455505,567.290222 
	C391.217712,563.581543 389.407257,562.041138 385.306305,562.081787 
	C367.309540,562.260437 349.308533,562.181335 331.311249,561.990295 
	C327.575073,561.950623 325.555908,563.088684 324.393494,566.778809 
	C321.794220,575.029968 318.794128,583.154907 315.807251,591.695801 
M567.606262,528.595947 
	C565.740723,532.072693 568.400452,531.674500 570.337646,531.683105 
	C579.289490,531.722900 588.242432,531.765869 597.193359,531.666260 
	C601.087708,531.622986 605.041931,532.217346 608.964294,531.204773 
	C609.027100,527.598511 606.762146,527.360229 604.304382,527.363647 
	C598.667908,527.371521 593.026123,527.226257 587.396362,527.424011 
	C580.975769,527.649475 574.507935,526.580811 567.606262,528.595947 
M373.095551,527.391479 
	C362.788239,527.402527 352.480865,527.405029 342.173615,527.430969 
	C339.802917,527.436951 337.353943,527.430481 337.834076,531.158081 
	C351.695404,531.158081 365.432861,531.158081 379.340027,531.158081 
	C378.759338,527.356384 376.341095,527.420349 373.095551,527.391479 
z" data-index="0" style="opacity: 1; visibility: visible; fill: rgb(255, 255, 255);"></path>
<path fill="#000000" opacity="1.000000" stroke="none" d="
M667.412720,482.654388 
	C679.072754,445.603821 710.020813,423.652771 748.499634,425.845398 
	C772.913635,427.236633 792.894775,437.614349 807.004578,458.238953 
	C809.417297,461.765656 808.808716,463.634308 805.264526,465.675385 
	C798.632996,469.494446 792.048096,473.439728 785.754211,477.782410 
	C782.114441,480.293793 780.344116,479.757263 777.920654,476.133514 
	C765.567749,457.662933 742.063293,451.741089 723.440002,462.334717 
	C710.175232,469.880188 702.594727,481.716614 699.528503,496.390320 
	C698.592163,500.871124 696.856628,502.486694 692.307190,502.295624 
	C684.494507,501.967621 676.657654,502.119324 668.832886,502.223022 
	C665.187317,502.271301 663.805054,501.172546 664.405823,497.184814 
	C665.126160,492.402985 666.068909,487.702118 667.412720,482.654388 
z" data-index="1" style="opacity: 1; visibility: visible; fill: rgb(255, 255, 255);"></path>
<path fill="#000000" opacity="1.000000" stroke="none" d="
M361.728333,479.240448 
	C360.814789,476.735535 359.996887,474.600800 358.798523,471.473083 
	C354.880554,479.734497 352.334137,487.417572 350.122253,495.132751 
	C348.494598,500.810303 345.644958,502.817200 339.790527,502.380280 
	C332.672760,501.849060 325.485565,502.175598 318.329773,502.255096 
	C314.494720,502.297699 313.252838,501.131165 314.726959,497.168488 
	C323.017517,474.882141 331.191650,452.551849 339.252899,430.181580 
	C340.409851,426.971039 342.224243,425.753479 345.506927,425.792084 
	C354.160400,425.893860 362.817017,425.893341 371.470032,425.768433 
	C374.386414,425.726349 376.105530,426.809021 377.118530,429.545441 
	C385.546265,452.311371 394.008179,475.064819 402.530090,497.795654 
	C403.701996,500.921570 402.729553,502.175232 399.556213,502.169708 
	C390.901642,502.154633 382.246552,502.102509 373.592743,502.180756 
	C370.553314,502.208221 369.158691,500.651581 368.264099,497.970581 
	C366.211426,491.819214 363.981750,485.726898 361.728333,479.240448 
z" data-index="2" style="opacity: 1; visibility: visible; fill: rgb(255, 255, 255);"></path>
<path fill="#000000" opacity="1.000000" stroke="none" d="
M557.248901,462.326111 
	C561.217957,451.499573 565.141541,441.066864 568.782776,430.536530 
	C569.943970,427.178467 571.765198,425.763824 575.318359,425.821167 
	C583.971497,425.960907 592.629639,425.910736 601.283875,425.794800 
	C604.195679,425.755798 605.911682,426.870514 606.906494,429.619415 
	C615.110718,452.290009 623.375244,474.938843 631.628357,497.591736 
	C632.086975,498.850616 632.604431,500.087555 631.698730,502.052063 
	C621.741516,502.052063 611.490601,502.096863 601.240784,502.016693 
	C599.022766,501.999359 598.331055,500.092407 597.713379,498.321899 
	C595.358643,491.571930 593.021057,484.815948 590.638794,478.075745 
	C590.037292,476.373871 589.787476,474.491364 588.335876,473.112518 
	C586.616150,473.325439 586.576599,474.835602 586.161011,475.999054 
	C583.531250,483.360748 580.837769,490.701813 578.363342,498.115784 
	C577.364258,501.109192 575.663940,502.306458 572.502991,502.252289 
	C564.182739,502.109619 555.856873,502.116608 547.536316,502.254089 
	C543.519348,502.320496 543.052856,500.653748 544.306396,497.315643 
	C548.632812,485.795105 552.840942,474.230164 557.248901,462.326111 
z" data-index="3" style="opacity: 1; visibility: visible; fill: rgb(255, 255, 255);"></path>
<path fill="#000000" opacity="1.000000" stroke="none" d="
M474.002533,502.161987 
	C469.841949,502.148895 466.178772,502.075226 462.518219,502.142822 
	C459.224182,502.203674 457.717834,500.891724 457.731689,497.405792 
	C457.820282,475.100006 457.822479,452.793610 457.744720,430.487762 
	C457.733337,427.220734 459.154602,425.980377 462.211365,425.983856 
	C470.867096,425.993713 479.522919,425.971375 488.178619,425.941315 
	C491.071991,425.931274 492.333679,427.256500 492.325165,430.216064 
	C492.260010,452.854858 492.246368,475.493958 492.288910,498.132782 
	C492.294708,501.221283 490.811310,502.229736 487.984283,502.186768 
	C483.490814,502.118378 478.995575,502.164978 474.002533,502.161987 
z" data-index="4" style="opacity: 1; visibility: visible; fill: rgb(255, 255, 255);"></path>
<path fill="#000000" opacity="1.000000" stroke="none" d="
M133.144928,470.291290 
	C139.706696,470.757629 145.867798,470.820862 152.018951,470.282013 
	C154.768875,470.041138 157.259613,470.146606 159.351105,472.383789 
	C168.111877,481.755035 176.952301,491.051788 185.736511,500.401215 
	C186.275085,500.974426 186.580933,501.766266 186.933701,502.354095 
	C186.009766,504.055542 184.599518,503.844482 183.303024,503.818298 
	C176.976410,503.690613 170.650986,503.494720 164.324005,503.398865 
	C162.103088,503.365173 160.017548,503.190002 158.348267,501.466553 
	C149.191238,492.012390 140.010422,482.581299 130.864853,473.116089 
	C130.440582,472.676971 130.276154,471.986755 130.043625,471.519775 
	C130.713287,470.254974 131.747253,470.299683 133.144928,470.291290 
z" data-index="5" style="opacity: 1; visibility: visible; fill: rgb(255, 255, 255);"></path>
<path fill="#000000" opacity="1.000000" stroke="none" d="
M207.716644,487.302216 
	C212.476181,492.403900 216.996567,497.245331 221.908768,502.506378 
	C217.552414,504.156281 213.569733,502.825684 209.788971,503.410095 
	C199.668900,504.974426 192.092911,501.626099 185.639206,493.451630 
	C179.510544,485.688812 172.046707,478.980072 165.308624,471.952484 
	C166.308197,469.868469 167.775497,470.113220 169.032028,470.104675 
	C175.017426,470.063965 181.003601,470.139099 186.989029,470.100861 
	C190.556122,470.078094 193.290039,471.417908 195.647644,474.173096 
	C199.433502,478.597412 203.518753,482.765564 207.716644,487.302216 
z" data-index="6" style="opacity: 1; visibility: visible; fill: rgb(255, 255, 255);"></path>
<path fill="#000000" opacity="1.000000" stroke="none" d="
M210.687714,484.312134 
	C206.416809,479.976044 202.396240,475.889557 197.335770,470.746124 
	C207.621353,470.746124 216.357635,470.713470 225.093185,470.779327 
	C226.497101,470.789917 227.470978,471.931244 228.376236,472.899597 
	C236.905746,482.023529 245.421341,491.160522 253.907669,500.324554 
	C254.436127,500.895203 254.685013,501.724731 255.566101,503.373444 
	C249.545166,503.373444 244.111588,502.897186 238.797592,503.490997 
	C231.757919,504.277618 226.738419,501.715820 222.365341,496.440582 
	C218.868393,492.222229 214.769669,488.502716 210.687714,484.312134 
z" data-index="7" style="opacity: 1; visibility: visible; fill: rgb(255, 255, 255);"></path>
</svg>